<svg width="26" height="26" viewBox="0 0 26 26" fill="none" xmlns="http://www.w3.org/2000/svg">
<g id="Frame">
<path id="Vector" d="M13 17.1666C14.7406 17.1666 16.125 15.7802 16.125 14.0416C16.125 12.3031 14.7406 10.9166 13 10.9166C11.2594 10.9166 9.875 12.3031 9.875 14.0416C9.875 15.7802 11.2594 17.1666 13 17.1666Z" fill="#03ACFF"/>
<path id="Vector_2" d="M22.1844 12.1521C21.9389 10.9525 21.4593 9.81304 20.7729 8.799C20.0985 7.80137 19.2393 6.94215 18.2417 6.26775C17.2275 5.58163 16.0881 5.10201 14.8885 4.85629C14.2584 4.72851 13.6169 4.66568 12.974 4.66879V2.58337L8.83333 5.70837L12.974 8.83337V6.75212C13.4781 6.75004 13.9823 6.79796 14.4687 6.89796C15.4011 7.08901 16.2866 7.46172 17.075 7.99483C17.8525 8.51904 18.5216 9.18819 19.0458 9.96567C19.8597 11.169 20.2937 12.589 20.2917 14.0417C20.2915 15.0166 20.0967 15.9816 19.7188 16.8802C19.5349 17.3131 19.3103 17.7275 19.0479 18.1177C18.7845 18.5057 18.4853 18.868 18.1542 19.2C17.1458 20.2065 15.8657 20.8968 14.4708 21.1865C13.5008 21.3823 12.5013 21.3823 11.5312 21.1865C10.5985 20.9953 9.71254 20.6222 8.92396 20.0886C8.14738 19.5648 7.47895 18.8964 6.95521 18.1198C6.14225 16.9152 5.70803 15.495 5.70833 14.0417H3.625C3.62611 15.9101 4.18426 17.7358 5.22813 19.2855C5.90297 20.2814 6.76131 21.1398 7.75729 21.8146C9.30481 22.862 11.1314 23.4202 13 23.4167C13.6347 23.4167 14.2677 23.3528 14.8896 23.2261C16.0883 22.9786 17.227 22.4991 18.2417 21.8146C18.7399 21.4789 19.2042 21.0955 19.6281 20.6698C20.0526 20.2442 20.4362 19.7796 20.774 19.2823C21.8204 17.7352 22.3782 15.9095 22.375 14.0417C22.3749 13.4071 22.3111 12.774 22.1844 12.1521Z" fill="#03ACFF"/>
</g>
</svg>
